<svg width="18" height="15" viewBox="0 0 18 15" fill="none" xmlns="http://www.w3.org/2000/svg">
<path d="M14.0416 14.7417C13.9645 14.819 13.873 14.8802 13.7721 14.9221C13.6713 14.9639 13.5633 14.9854 13.4541 14.9854C13.345 14.9854 13.2369 14.9639 13.1361 14.9221C13.0353 14.8802 12.9437 14.819 12.8666 14.7417L11.1 12.975C11.0228 12.8979 10.9616 12.8063 10.9199 12.7055C10.8781 12.6047 10.8566 12.4966 10.8566 12.3875C10.8566 12.2784 10.8781 12.1704 10.9199 12.0696C10.9616 11.9688 11.0228 11.8772 11.1 11.8C11.2558 11.6442 11.4671 11.5567 11.6875 11.5567C11.7966 11.5567 11.9046 11.5782 12.0054 11.6199C12.1062 11.6617 12.1978 11.7229 12.275 11.8L13.45 12.975L16.4 10.025C16.4771 9.94789 16.5687 9.88669 16.6695 9.84493C16.7703 9.80318 16.8784 9.78169 16.9875 9.78169C17.0966 9.78169 17.2046 9.80318 17.3054 9.84493C17.4062 9.88669 17.4978 9.94789 17.575 10.025C17.6521 10.1022 17.7133 10.1938 17.7551 10.2946C17.7968 10.3954 17.8183 10.5034 17.8183 10.6125C17.8183 10.7216 17.7968 10.8297 17.7551 10.9305C17.7133 11.0313 17.6521 11.1229 17.575 11.2L14.0416 14.7417ZM9.06663 13.6667H2.33329C1.41663 13.6667 0.666626 12.9167 0.666626 12V2.00004C0.666626 1.08337 1.41663 0.333374 2.33329 0.333374H15.6666C16.5833 0.333374 17.3333 1.08337 17.3333 2.00004V7.56671C16.4446 7.14391 15.4632 6.95302 14.4808 7.01183C13.4984 7.07063 12.5469 7.37722 11.7149 7.90302C10.883 8.42881 10.1977 9.15669 9.72294 10.0188C9.24821 10.8809 8.99949 11.8492 8.99996 12.8334C8.99996 13.1167 9.02496 13.3917 9.06663 13.6667ZM8.55829 7.55837C8.82496 7.72504 9.17496 7.72504 9.44163 7.55837L15.3333 3.87504C15.4169 3.82813 15.49 3.76476 15.5484 3.68875C15.6067 3.61275 15.6491 3.52569 15.6728 3.43285C15.6966 3.34001 15.7012 3.24332 15.6865 3.14863C15.6718 3.05394 15.638 2.96322 15.5872 2.88196C15.5364 2.8007 15.4697 2.73059 15.391 2.67587C15.3124 2.62115 15.2234 2.58297 15.1295 2.56362C15.0357 2.54428 14.9389 2.54418 14.845 2.56333C14.7511 2.58248 14.6621 2.62049 14.5833 2.67504L8.99996 6.16671L3.41663 2.67504C3.33785 2.62049 3.24881 2.58248 3.15492 2.56333C3.06103 2.54418 2.96423 2.54428 2.87037 2.56362C2.77652 2.58297 2.68757 2.62115 2.6089 2.67587C2.53023 2.73059 2.46348 2.8007 2.41269 2.88196C2.36191 2.96322 2.32813 3.05394 2.31342 3.14863C2.29871 3.24332 2.30337 3.34001 2.32711 3.43285C2.35084 3.52569 2.39317 3.61275 2.45153 3.68875C2.50989 3.76476 2.58307 3.82813 2.66663 3.87504L8.55829 7.55837Z" fill="white"/>
</svg>
