<svg width="156" height="58" viewBox="0 0 156 58" fill="none" xmlns="http://www.w3.org/2000/svg">
<g clip-path="url(#clip0_2_26)">
<path d="M28.5322 22.1168C30.1965 22.1177 31.7923 22.8013 32.9688 24.0174C34.1453 25.2335 34.8063 26.8825 34.8063 28.6018C34.8063 30.3209 34.1452 31.9696 32.9686 33.1851C31.792 34.4007 30.1962 35.0836 28.5322 35.0836" fill="#F9F9F9"/>
<path d="M28.2744 11.0946C23.7598 11.1007 19.4318 12.9562 16.2395 16.2541C13.0473 19.5521 11.2513 24.0234 11.2454 28.6874C11.2504 33.352 13.046 37.8241 16.2384 41.1228C19.4308 44.4215 23.7592 46.2774 28.2744 46.2835V40.6177C25.213 40.6143 22.278 39.3561 20.1135 37.1194C17.9491 34.8827 16.7321 31.8502 16.7295 28.6874C16.7329 25.5252 17.9503 22.4936 20.1146 20.2576C22.279 18.0216 25.2135 16.7638 28.2744 16.7604V11.0946Z" fill="#F9F9F9"/>
<path d="M5.48103 28.9869C5.48103 29.033 5.48103 29.0757 5.48103 29.1218H3.28387e-06C3.28387e-06 29.0757 3.28387e-06 29.033 3.28387e-06 28.9869C-0.00348032 21.5557 2.76477 14.409 7.72947 9.03174L11.6977 12.9339C7.70545 17.2606 5.47923 23.0093 5.48103 28.9869Z" fill="#F9F9F9"/>
<path d="M47.9184 8.4921L44.0425 12.4963C41.9499 10.3229 39.4608 8.59971 36.7192 7.42669C33.9777 6.25367 31.0382 5.65405 28.0708 5.66251C27.8033 5.66251 27.5422 5.66251 27.2778 5.68225V0.0329463C27.5422 0.0329463 27.8033 0.0132058 28.0708 0.0132058C31.7573 0.00115338 35.4096 0.744301 38.8164 2.19967C42.2231 3.65504 45.3168 5.79375 47.9184 8.4921Z" fill="#F9F9F9"/>
<path d="M28.0706 52.3475C33.8451 52.3573 39.402 50.0718 43.59 45.9644L47.3576 50.0805C42.1518 55.1827 35.2463 58.0217 28.0706 58.0099C20.7403 58.0131 13.7016 55.0442 8.46826 49.7416L12.427 45.8197C16.6251 50.0086 22.2341 52.3491 28.0706 52.3475Z" fill="#F9F9F9"/>
<path d="M85.4191 40.2624C82.8863 42.415 79.7018 43.5795 76.4221 43.5527C68.2595 43.5527 62.2881 37.1367 62.2881 28.6216C62.2881 20.1066 68.4602 13.6939 76.3425 13.6939C79.4671 13.657 82.5116 14.7147 84.9796 16.6946L83.9446 19.6558C81.8157 17.866 79.1665 16.8671 76.4221 16.8196C70.25 16.8196 65.6321 21.9195 65.6321 28.6216C65.6321 35.3238 70.0526 40.427 76.5018 40.427C79.4133 40.4048 82.2218 39.3105 84.4223 37.3407L85.4191 40.2624Z" fill="#F9F9F9"/>
<path d="M98.9923 21.0903C105.244 21.0903 109.782 25.9006 109.782 32.3166C109.782 38.7325 105.164 43.5461 98.9541 43.5461C92.7438 43.5461 88.1641 38.8147 88.1641 32.3166C88.1641 25.8184 92.8234 21.0903 98.9923 21.0903ZM98.9541 40.5849C103.413 40.5849 106.598 37.0874 106.598 32.3166C106.598 27.5457 103.413 24.0515 98.9541 24.0515C94.4954 24.0515 91.3902 27.628 91.3902 32.3166C91.3902 37.1367 94.5336 40.5915 98.9541 40.5915V40.5849Z" fill="#F9F9F9"/>
<path d="M113.802 13.2827H116.948V43.0164H113.802V13.2827Z" fill="#F9F9F9"/>
<path d="M122.362 13.2827H125.506V25.0847C126.301 23.8349 127.39 22.8136 128.671 22.1163C129.952 21.419 131.383 21.0683 132.831 21.0969C138.684 21.0969 142.703 25.7855 142.703 32.3659C142.703 38.9464 138.484 43.5527 132.592 43.5527C131.171 43.5701 129.769 43.2219 128.511 42.5395C127.254 41.8571 126.18 40.862 125.388 39.6439V43.0164H122.362V13.2827ZM132.394 40.631C136.375 40.631 139.48 37.3835 139.48 32.4054C139.48 27.5129 136.535 24.0581 132.474 24.0581C128.573 24.0581 125.388 27.1016 125.388 32.4054C125.388 36.8834 128.095 40.631 132.394 40.631Z" fill="#F9F9F9"/>
<path d="M156 24.3444C151.264 24.3444 149.869 28.2104 149.869 32.7772V43.0164H146.726V21.6299H149.831V25.2097C150.548 23.0711 152.857 21.0969 156 21.0969V24.3444Z" fill="#F9F9F9"/>
</g>
<defs>
<clipPath id="clip0_2_26">
<rect width="156" height="58" fill="white"/>
</clipPath>
</defs>
</svg>
